<?xml version="1.0" standalone="no"?>
<!DOCTYPE svg PUBLIC "-//W3C//DTD SVG 20010904//EN"
 "http://www.w3.org/TR/2001/REC-SVG-20010904/DTD/svg10.dtd">
<svg version="1.0" xmlns="http://www.w3.org/2000/svg"
 width="677.000000pt" height="684.000000pt" viewBox="0 0 677.000000 684.000000"
 preserveAspectRatio="xMidYMid meet">

<g transform="translate(0.000000,684.000000) scale(0.100000,-0.100000)"
fill="#000000" stroke="none">
<path d="M3240 6780 c-433 -43 -853 -263 -1129 -593 -251 -301 -384 -646 -398
-1032 -11 -299 43 -556 172 -820 294 -598 933 -974 1599 -941 740 37 1371 545
1561 1258 74 278 74 598 0 876 -213 800 -981 1333 -1805 1252z m393 -571 c230
-46 420 -149 587 -318 309 -312 412 -791 257 -1203 -241 -638 -985 -927 -1591
-617 -316 161 -529 447 -607 814 -17 77 -17 332 0 410 88 416 359 734 746 874
174 63 418 79 608 40z"/>
<path d="M3023 2844 c-771 -84 -1468 -418 -2018 -969 -386 -386 -649 -813
-820 -1330 -48 -145 -109 -384 -117 -460 l-3 -30 270 0 270 0 13 55 c98 420
279 800 542 1140 89 115 333 361 450 454 632 503 1438 715 2230 586 943 -154
1744 -777 2135 -1659 55 -124 128 -339 156 -459 11 -48 22 -95 25 -104 5 -17
27 -18 275 -18 234 0 269 2 269 15 0 9 -11 67 -25 130 -118 545 -353 1030
-712 1462 -101 122 -347 363 -473 464 -518 415 -1128 662 -1799 729 -140 14
-519 11 -668 -6z"/>
</g>
</svg>
