<?xml version="1.0" standalone="no"?>
<!DOCTYPE svg PUBLIC "-//W3C//DTD SVG 20010904//EN"
 "http://www.w3.org/TR/2001/REC-SVG-20010904/DTD/svg10.dtd">
<svg version="1.0" xmlns="http://www.w3.org/2000/svg"
 width="576.000000pt" height="703.000000pt" viewBox="0 0 576.000000 703.000000"
 preserveAspectRatio="xMidYMid meet">

<g transform="translate(0.000000,703.000000) scale(0.100000,-0.100000)"
fill="#000000" stroke="none">
<path d="M2692 6949 c-1225 -88 -2259 -1026 -2512 -2278 -56 -279 -53 -179
-57 -1978 l-4 -1663 276 0 275 0 0 1605 c0 1058 4 1639 11 1703 96 890 691
1652 1509 1933 684 236 1436 113 2020 -329 103 -79 308 -280 390 -382 206
-260 361 -567 439 -873 36 -139 58 -268 71 -417 6 -71 10 -717 10 -1677 l0
-1563 270 0 270 0 0 1613 c0 1022 -4 1651 -10 1720 -54 572 -269 1104 -628
1557 -93 117 -317 342 -432 434 -443 353 -955 554 -1520 596 -150 11 -213 11
-378 -1z"/>
<path d="M1900 983 c0 -66 24 -195 50 -273 109 -324 371 -571 690 -649 478
-117 958 142 1136 615 30 81 50 174 60 277 l7 77 -276 0 -276 0 -6 -37 c-29
-181 -114 -306 -252 -371 -52 -24 -70 -27 -163 -27 -99 0 -109 2 -173 33 -128
63 -214 182 -238 330 l-12 72 -273 0 -274 0 0 -47z"/>
</g>
</svg>
