<?xml version="1.0" standalone="no"?>
<!DOCTYPE svg PUBLIC "-//W3C//DTD SVG 20010904//EN"
 "http://www.w3.org/TR/2001/REC-SVG-20010904/DTD/svg10.dtd">
<svg version="1.0" xmlns="http://www.w3.org/2000/svg"
 width="803.000000pt" height="661.000000pt" viewBox="0 0 803.000000 661.000000"
 preserveAspectRatio="xMidYMid meet">

<g transform="translate(0.000000,661.000000) scale(0.100000,-0.100000)"
fill="#000000" stroke="none">
<path d="M2362 6045 c-233 -42 -457 -160 -628 -330 -354 -353 -442 -874 -222
-1320 157 -316 440 -538 798 -625 122 -30 326 -37 455 -16 125 21 287 75 385
128 281 152 494 417 576 716 110 400 -3 822 -300 1117 -175 174 -393 287 -637
330 -103 18 -326 18 -427 0z"/>
<path d="M5999 4630 c-366 -45 -661 -294 -761 -645 -32 -114 -32 -325 0 -438
45 -159 117 -283 229 -394 188 -189 478 -288 737 -254 378 51 664 297 761 657
25 89 30 253 12 354 -59 336 -316 611 -650 695 -107 27 -235 36 -328 25z"/>
<path d="M2390 3269 c-965 -69 -1790 -695 -2103 -1595 -68 -196 -110 -409
-123 -631 l-7 -113 1929 0 1930 0 12 137 c14 167 39 287 92 444 82 246 231
497 397 670 53 56 57 46 -59 191 -487 612 -1275 954 -2068 897z"/>
<path d="M5928 2650 c-611 -64 -1137 -422 -1403 -955 -106 -212 -163 -423
-180 -662 l-7 -93 1762 0 1763 0 -7 103 c-53 794 -653 1450 -1454 1587 -134
23 -353 32 -474 20z"/>
</g>
</svg>
