<?xml version="1.0" standalone="no"?>
<!DOCTYPE svg PUBLIC "-//W3C//DTD SVG 20010904//EN"
 "http://www.w3.org/TR/2001/REC-SVG-20010904/DTD/svg10.dtd">
<svg version="1.0" xmlns="http://www.w3.org/2000/svg"
 width="685.000000pt" height="681.000000pt" viewBox="0 0 685.000000 681.000000"
 preserveAspectRatio="xMidYMid meet">

<g transform="translate(0.000000,681.000000) scale(0.100000,-0.100000)"
fill="#000000" stroke="none">
<path d="M1510 6200 l0 -540 -704 0 -704 0 -4 -1087 c-1 -599 -1 -1852 0
-2786 l4 -1697 3324 0 3324 0 0 2785 0 2785 -720 0 -720 0 0 540 0 540 -280 0
-280 0 0 -540 0 -540 -1340 0 -1340 0 0 540 0 540 -280 0 -280 0 0 -540z m550
-820 l0 -280 1345 0 1345 0 0 280 0 280 280 0 280 0 0 -280 0 -280 445 0 445
0 0 -695 0 -695 -2775 0 -2775 0 0 695 0 695 428 2 427 3 3 278 2 277 275 0
275 0 0 -280z m4138 -3482 l-3 -1253 -2770 0 -2770 0 -3 1253 -2 1252 2775 0
2775 0 -2 -1252z"/>
</g>
</svg>
