<svg version="1.1" id="Layer_1" xmlns="http://www.w3.org/2000/svg" xmlns:xlink="http://www.w3.org/1999/xlink" x="0px" y="0px"
	 width="100%" viewBox="0 0 799 778" enable-background="new 0 0 799 778" xml:space="preserve">
<path fill="#FEFEFE" opacity="1.000000" stroke="none" 
	d="
M458.000000,779.000000 
	C305.333344,779.000000 153.166672,779.000000 1.000000,779.000000 
	C1.000000,519.666687 1.000000,260.333344 1.000000,1.000000 
	C267.333344,1.000000 533.666687,1.000000 800.000000,1.000000 
	C800.000000,260.333344 800.000000,519.666687 800.000000,779.000000 
	C686.166687,779.000000 572.333313,779.000000 458.000000,779.000000 
M362.808777,533.839844 
	C371.067139,536.169678 379.360565,538.254089 388.251617,538.038635 
	C388.251617,489.806244 388.277527,442.161987 388.110809,394.518402 
	C388.106384,393.252686 386.244843,391.331848 384.851715,390.837830 
	C374.213226,387.065491 363.366364,383.865051 352.797180,379.916870 
	C339.827118,375.071838 327.598114,368.705719 316.688873,360.034973 
	C297.336609,344.653687 288.869141,324.073853 288.297638,299.882416 
	C287.923035,284.024475 290.549286,268.698853 298.248505,254.608917 
	C310.437439,232.302536 330.273315,219.916626 353.935333,213.210953 
	C365.044067,210.062805 376.591064,208.461105 387.975464,206.151276 
	C387.975464,139.728546 387.975464,72.995834 387.975464,6.002595 
	C386.221130,6.079832 384.748627,6.097846 383.284149,6.215924 
	C335.625702,10.058502 289.849762,21.328932 246.255142,41.105305 
	C185.019760,68.884277 133.675797,109.244164 93.238197,163.001144 
	C51.235054,218.839294 26.186474,281.570618 18.693562,351.191132 
	C12.849844,405.488159 18.286242,458.662018 36.108593,510.209045 
	C72.075020,614.233643 140.795914,689.376526 239.425507,737.428772 
	C276.915283,755.693787 316.623901,766.989624 357.882019,772.790527 
	C367.832336,774.189575 377.878021,774.910645 387.907349,775.946411 
	C387.907349,706.814636 387.907349,638.431519 387.907349,570.059631 
	C318.682220,568.065002 273.628906,518.718750 270.004120,456.778564 
	C281.227966,456.778564 292.451813,456.778564 303.588226,456.778564 
	C313.006927,501.029083 327.828827,520.416016 362.808777,533.839844 
M420.043732,292.500000 
	C420.043732,316.948059 420.043732,341.396088 420.043732,365.521301 
	C430.427246,369.132599 440.414246,372.290680 450.162415,376.065552 
	C467.473999,382.769287 484.058502,390.998993 497.447723,404.172058 
	C523.913086,430.210114 528.419983,462.310150 519.976501,496.523468 
	C511.542755,530.697144 487.347656,550.856506 455.072845,561.821594 
	C443.859802,565.631165 432.001526,567.541626 420.251221,570.364380 
	C420.251221,638.107971 420.251221,706.385498 420.251221,775.818054 
	C437.334900,773.162781 454.172150,771.183777 470.738525,767.856262 
	C530.519348,755.848816 585.184326,731.817932 633.411560,694.516907 
	C720.758911,626.958679 771.970520,538.464661 784.209656,428.232178 
	C789.472473,380.832153 785.174744,334.108185 772.013855,288.292572 
	C748.236328,205.518341 701.548218,138.231171 633.173401,86.218246 
	C576.663696,43.231068 512.699219,17.759922 442.373077,8.246047 
	C435.053680,7.255866 427.680481,6.663623 420.239624,5.876951 
	C420.239624,73.402809 420.239624,140.189468 420.239624,206.960587 
	C480.157806,211.617676 517.434448,257.364777 518.527771,309.695221 
	C511.380829,309.695221 504.237305,309.695251 497.093811,309.695251 
	C485.259644,309.695251 485.199219,309.705414 483.201599,297.869293 
	C480.557465,282.202576 473.356201,268.984772 461.727234,258.269135 
	C450.048981,247.508118 436.273865,241.250168 420.043732,239.557922 
	C420.043732,257.199066 420.043732,274.349518 420.043732,292.500000 
M420.041687,520.498413 
	C420.041687,526.273987 420.041687,532.049622 420.041687,538.269104 
	C426.180817,537.040466 431.794403,536.232300 437.234283,534.775452 
	C465.725128,527.145386 487.478699,509.207123 489.476624,476.536530 
	C490.698456,456.557281 487.470917,437.897644 470.841644,424.193176 
	C456.052856,412.005493 438.398010,405.766174 420.041687,399.636078 
	C420.041687,439.962006 420.041687,479.730621 420.041687,520.498413 
M388.272888,310.500153 
	C388.272888,286.245667 388.272888,261.991180 388.272888,236.738968 
	C379.050964,238.947571 370.535522,240.506042 362.322876,243.044189 
	C337.827698,250.614456 324.513824,266.729980 322.680939,291.151276 
	C321.661377,304.736084 323.391388,317.980682 333.092957,328.547150 
	C347.810394,344.576630 367.937531,350.134033 388.272919,356.712555 
	C388.272919,341.102631 388.272919,326.301422 388.272888,310.500153 
z"/>
<path fill="#000000" opacity="1.000000" stroke="none" 
	d="
M362.440186,533.693420 
	C327.828827,520.416016 313.006927,501.029083 303.588226,456.778564 
	C292.451813,456.778564 281.227966,456.778564 270.001953,456.780975 
	C273.628906,518.718750 318.682220,568.065002 387.907349,570.059631 
	C387.907349,638.431519 387.907349,706.814636 387.907349,775.946411 
	C377.878021,774.910645 367.832336,774.189575 357.882019,772.790527 
	C316.623901,766.989624 276.915283,755.693787 239.425507,737.428772 
	C140.795914,689.376526 72.075020,614.233643 36.108593,510.209045 
	C18.286242,458.662018 12.849844,405.488159 18.693562,351.191132 
	C26.186474,281.570618 51.235054,218.839294 93.238197,163.001144 
	C133.675797,109.244164 185.019760,68.884277 246.255142,41.105305 
	C289.849762,21.328932 335.625702,10.058502 383.284149,6.215924 
	C384.748627,6.097846 386.221130,6.079832 387.975464,6.002595 
	C387.975464,72.995834 387.975464,139.728546 387.975464,206.151276 
	C376.591064,208.461105 365.044067,210.062805 353.935333,213.210953 
	C330.273315,219.916626 310.437439,232.302536 298.248505,254.608917 
	C290.549286,268.698853 287.923035,284.024475 288.297638,299.882416 
	C288.869141,324.073853 297.336609,344.653687 316.688873,360.034973 
	C327.598114,368.705719 339.827118,375.071838 352.797180,379.916870 
	C363.366364,383.865051 374.213226,387.065491 384.851715,390.837830 
	C386.244843,391.331848 388.106384,393.252686 388.110809,394.518402 
	C388.277527,442.161987 388.251617,489.806244 388.251617,538.038635 
	C379.360565,538.254089 371.067139,536.169678 362.440186,533.693420 
z"/>
<path fill="#000000" opacity="1.000000" stroke="none" 
	d="
M420.043732,292.000000 
	C420.043732,274.349518 420.043732,257.199066 420.043732,239.557922 
	C436.273865,241.250168 450.048981,247.508118 461.727234,258.269135 
	C473.356201,268.984772 480.557465,282.202576 483.201599,297.869293 
	C485.199219,309.705414 485.259644,309.695251 497.093811,309.695251 
	C504.237305,309.695251 511.380829,309.695221 518.527771,309.695221 
	C517.434448,257.364777 480.157806,211.617676 420.239624,206.960587 
	C420.239624,140.189468 420.239624,73.402809 420.239624,5.876951 
	C427.680481,6.663623 435.053680,7.255866 442.373077,8.246047 
	C512.699219,17.759922 576.663696,43.231068 633.173401,86.218246 
	C701.548218,138.231171 748.236328,205.518341 772.013855,288.292572 
	C785.174744,334.108185 789.472473,380.832153 784.209656,428.232178 
	C771.970520,538.464661 720.758911,626.958679 633.411560,694.516907 
	C585.184326,731.817932 530.519348,755.848816 470.738525,767.856262 
	C454.172150,771.183777 437.334900,773.162781 420.251221,775.818054 
	C420.251221,706.385498 420.251221,638.107971 420.251221,570.364380 
	C432.001526,567.541626 443.859802,565.631165 455.072845,561.821594 
	C487.347656,550.856506 511.542755,530.697144 519.976501,496.523468 
	C528.419983,462.310150 523.913086,430.210114 497.447723,404.172058 
	C484.058502,390.998993 467.473999,382.769287 450.162415,376.065552 
	C440.414246,372.290680 430.427246,369.132599 420.043732,365.521301 
	C420.043732,341.396088 420.043732,316.948059 420.043732,292.000000 
z"/>
<path fill="#010101" opacity="1.000000" stroke="none" 
	d="
M420.041687,519.998779 
	C420.041687,479.730621 420.041687,439.962006 420.041687,399.636078 
	C438.398010,405.766174 456.052856,412.005493 470.841644,424.193176 
	C487.470917,437.897644 490.698456,456.557281 489.476624,476.536530 
	C487.478699,509.207123 465.725128,527.145386 437.234283,534.775452 
	C431.794403,536.232300 426.180817,537.040466 420.041687,538.269104 
	C420.041687,532.049622 420.041687,526.273987 420.041687,519.998779 
z"/>
<path fill="#010101" opacity="1.000000" stroke="none" 
	d="
M388.272888,311.000183 
	C388.272919,326.301422 388.272919,341.102631 388.272919,356.712555 
	C367.937531,350.134033 347.810394,344.576630 333.092957,328.547150 
	C323.391388,317.980682 321.661377,304.736084 322.680939,291.151276 
	C324.513824,266.729980 337.827698,250.614456 362.322876,243.044189 
	C370.535522,240.506042 379.050964,238.947571 388.272888,236.738968 
	C388.272888,261.991180 388.272888,286.245667 388.272888,311.000183 
z"/>
</svg>