<?xml version="1.0" standalone="no"?>
<!DOCTYPE svg PUBLIC "-//W3C//DTD SVG 20010904//EN"
 "http://www.w3.org/TR/2001/REC-SVG-20010904/DTD/svg10.dtd">
<svg version="1.0" xmlns="http://www.w3.org/2000/svg"
 width="813.000000pt" height="756.000000pt" viewBox="0 0 813.000000 756.000000"
 preserveAspectRatio="xMidYMid meet">

<g transform="translate(0.000000,756.000000) scale(0.100000,-0.100000)"
fill="#000000" stroke="none">
<path d="M3166 7330 c-523 -60 -958 -363 -1190 -828 -57 -113 -97 -232 -127
-372 -30 -138 -33 -407 -6 -547 115 -614 580 -1086 1193 -1210 136 -27 443
-25 581 5 595 129 1035 573 1165 1177 29 133 31 416 5 545 -117 571 -500 1001
-1042 1170 -176 54 -411 79 -579 60z"/>
<path d="M4703 7329 c-91 -10 -264 -46 -275 -57 -4 -4 29 -38 73 -76 264 -224
479 -578 567 -931 40 -158 47 -226 47 -440 0 -236 -13 -328 -71 -523 -101
-333 -286 -619 -558 -859 l-69 -62 54 -15 c124 -36 240 -48 384 -43 209 9 366
48 560 142 435 209 740 604 832 1079 25 128 25 434 0 562 -87 447 -370 834
-767 1047 -245 132 -550 201 -777 176z"/>
<path d="M4730 3565 c0 -3 42 -26 93 -51 315 -158 590 -358 853 -619 295 -293
480 -547 659 -905 220 -441 331 -876 361 -1417 l6 -123 604 0 604 0 0 48 c0
182 -40 477 -95 701 -311 1263 -1378 2204 -2660 2345 -138 15 -425 29 -425 21z"/>
<path d="M3030 3553 c-642 -65 -1216 -303 -1694 -702 -129 -107 -326 -307
-429 -436 -424 -527 -660 -1150 -693 -1832 l-7 -143 3092 0 c1700 0 3091 3
3091 8 0 4 -5 81 -10 172 -19 292 -66 547 -150 800 -165 500 -418 902 -801
1275 -493 480 -1104 769 -1798 850 -114 14 -498 19 -601 8z"/>
</g>
</svg>
