<?xml version="1.0" standalone="no"?>
<!DOCTYPE svg PUBLIC "-//W3C//DTD SVG 20010904//EN"
 "http://www.w3.org/TR/2001/REC-SVG-20010904/DTD/svg10.dtd">
<svg version="1.0" xmlns="http://www.w3.org/2000/svg"
 width="862.000000pt" height="802.000000pt" viewBox="0 0 862.000000 802.000000"
 preserveAspectRatio="xMidYMid meet">

<g transform="translate(0.000000,802.000000) scale(0.100000,-0.100000)"
fill="#000000" stroke="none">
<path d="M4126 7849 c-273 -31 -578 -153 -796 -317 -448 -338 -697 -859 -677
-1417 12 -327 105 -616 288 -891 99 -149 303 -353 449 -450 391 -259 837 -343
1293 -242 l97 21 0 69 0 68 -577 2 -578 3 0 530 0 530 578 3 577 2 0 585 0
585 510 0 c281 0 510 4 510 8 0 30 -159 265 -243 359 -363 406 -901 614 -1431
552z"/>
<path d="M5840 6313 l0 -553 48 0 49 0 11 53 c30 140 35 196 36 367 0 153 -4
205 -23 300 -20 104 -89 332 -112 370 -5 9 -9 -214 -9 -537z"/>
<path d="M5080 6035 l0 -585 -580 0 -580 0 0 -235 0 -235 578 -2 577 -3 3
-582 2 -583 230 0 230 0 0 585 0 585 575 0 575 0 0 235 0 235 -575 0 -575 0 0
585 0 585 -230 0 -230 0 0 -585z"/>
<path d="M4035 3640 c-843 -71 -1621 -439 -2205 -1046 -498 -518 -825 -1178
-934 -1884 -24 -154 -46 -394 -46 -502 l0 -48 3451 0 3451 0 -7 132 c-18 360
-74 665 -180 983 -212 639 -602 1199 -1126 1622 -226 181 -574 386 -844 496
-292 120 -607 200 -930 237 -127 15 -499 20 -630 10z"/>
</g>
</svg>
