<?xml version="1.0" standalone="no"?>
<!DOCTYPE svg PUBLIC "-//W3C//DTD SVG 20010904//EN"
 "http://www.w3.org/TR/2001/REC-SVG-20010904/DTD/svg10.dtd">
<svg version="1.0" xmlns="http://www.w3.org/2000/svg"
 width="808.000000pt" height="667.000000pt" viewBox="0 0 808.000000 667.000000"
 preserveAspectRatio="xMidYMid meet">

<g transform="translate(0.000000,667.000000) scale(0.100000,-0.100000)"
fill="#000000" stroke="none">
<path d="M3303 6338 c14 -18 257 -348 541 -733 l516 -700 -2080 -3 -2080 -2 0
-725 0 -725 3795 0 c2087 0 3795 1 3795 3 0 2 -243 325 -541 718 -297 393
-793 1048 -1101 1457 l-561 742 -1154 0 -1154 0 24 -32z"/>
<path d="M352 3136 c2 -7 475 -653 1053 -1435 l1050 -1421 1178 0 c1119 0
1177 1 1168 18 -6 9 -250 334 -544 722 l-533 705 2086 5 2085 5 0 705 0 705
-3773 3 c-3190 2 -3773 0 -3770 -12z"/>
</g>
</svg>
