<?xml version="1.0" standalone="no"?>
<!DOCTYPE svg PUBLIC "-//W3C//DTD SVG 20010904//EN"
 "http://www.w3.org/TR/2001/REC-SVG-20010904/DTD/svg10.dtd">
<svg version="1.0" xmlns="http://www.w3.org/2000/svg"
 width="773.000000pt" height="800.000000pt" viewBox="0 0 773.000000 800.000000"
 preserveAspectRatio="xMidYMid meet">

<g transform="translate(0.000000,800.000000) scale(0.100000,-0.100000)"
fill="#000000" stroke="none">
<path d="M860 5640 l0 -2210 3045 0 3045 0 0 2210 0 2210 -3045 0 -3045 0 0
-2210z m3281 1576 c442 -94 711 -545 583 -977 -61 -206 -222 -391 -418 -479
-109 -50 -179 -64 -311 -64 -175 1 -303 41 -439 138 -383 273 -432 826 -103
1164 119 123 243 187 432 226 47 9 195 5 256 -8z m169 -1799 c370 -88 672
-289 890 -592 153 -214 260 -499 277 -742 l6 -83 -155 0 -155 0 -12 82 c-57
373 -298 705 -640 882 -176 91 -340 130 -541 130 -142 0 -237 -14 -361 -55
-416 -135 -725 -482 -813 -911 -9 -42 -16 -89 -16 -103 l0 -25 -155 0 c-180 0
-163 -17 -140 143 39 258 127 479 274 687 64 91 220 250 312 319 186 141 426
246 639 281 41 6 82 13 90 15 8 2 101 2 205 0 160 -3 207 -7 295 -28z"/>
<path d="M3858 6901 c-155 -50 -273 -172 -313 -326 -30 -116 -14 -255 41 -356
34 -61 122 -149 183 -183 131 -71 290 -74 431 -8 68 32 176 138 209 205 67
139 69 291 3 425 -33 68 -119 164 -179 199 -107 63 -260 81 -375 44z"/>
<path d="M850 2845 l0 -195 3050 0 3050 0 0 195 0 195 -3050 0 -3050 0 0 -195z"/>
<path d="M850 2075 l0 -185 3050 0 3050 0 0 185 0 185 -3050 0 -3050 0 0 -185z"/>
<path d="M850 1300 l0 -190 3050 0 3050 0 0 190 0 190 -3050 0 -3050 0 0 -190z"/>
<path d="M850 430 l0 -290 3050 0 3050 0 0 290 0 290 -3050 0 -3050 0 0 -290z"/>
</g>
</svg>
