<?xml version="1.0" standalone="no"?>
<!DOCTYPE svg PUBLIC "-//W3C//DTD SVG 20010904//EN"
 "http://www.w3.org/TR/2001/REC-SVG-20010904/DTD/svg10.dtd">
<svg version="1.0" xmlns="http://www.w3.org/2000/svg"
 width="814.000000pt" height="801.000000pt" viewBox="0 0 814.000000 801.000000"
 preserveAspectRatio="xMidYMid meet">

<g transform="translate(0.000000,801.000000) scale(0.100000,-0.100000)"
fill="#000000" stroke="none">
<path d="M3801 7810 c-764 -53 -1479 -319 -2079 -773 -107 -81 -133 -107 -111
-107 8 0 234 -220 502 -488 l488 -488 -487 -492 -486 -492 -231 0 -232 0 410
410 410 410 -666 0 -665 0 -54 -107 c-226 -455 -369 -1001 -392 -1493 l-3 -65
1603 -3 c967 -1 1602 2 1600 7 -1 5 -182 192 -402 415 l-398 406 228 0 229 -1
494 -490 494 -491 -489 -489 -489 -489 -230 0 -230 0 405 405 405 405 -1611 0
-1612 0 4 -42 c17 -198 29 -303 50 -428 61 -365 184 -740 350 -1072 l54 -108
2095 0 c1152 0 2095 3 2095 8 -1 4 -178 187 -395 407 l-393 400 226 3 227 2
487 -487 488 -488 -492 -492 -493 -493 -222 0 c-123 0 -223 3 -223 7 0 3 180
184 400 400 220 217 400 399 400 404 0 5 -809 9 -2000 9 -1100 0 -2000 -2
-2000 -6 0 -10 77 -119 158 -222 353 -454 811 -827 1327 -1082 416 -205 822
-324 1310 -382 166 -20 675 -17 840 5 490 65 864 178 1285 389 395 197 668
395 991 717 203 204 342 371 484 586 347 522 546 1069 627 1725 17 140 17 669
0 810 -95 780 -365 1428 -839 2020 -126 158 -373 409 -526 536 -588 485 -1298
786 -2052 868 -177 19 -502 27 -664 16z"/>
<path d="M1264 6623 c-131 -142 -241 -275 -329 -399 l-77 -109 553 -3 c304 -1
555 0 558 3 7 7 -590 605 -604 605 -6 0 -51 -44 -101 -97z"/>
</g>
</svg>
