<svg version="1.1" id="Layer_1" xmlns="http://www.w3.org/2000/svg"  x="0px" y="0px"
	 width="100%" viewBox="0 0 814 665" enable-background="new 0 0 814 665" >
<path fill="#FDFDFD" opacity="1.000000" stroke="none" 
	d="
M815.000000,251.000000 
	C815.000000,389.666656 815.000000,527.833313 815.000000,666.000000 
	C543.666687,666.000000 272.333344,666.000000 1.000000,666.000000 
	C1.000000,444.333344 1.000000,222.666672 1.000000,1.000000 
	C272.333344,1.000000 543.666687,1.000000 815.000000,1.000000 
	C815.000000,84.166664 815.000000,167.333328 815.000000,251.000000 
M20.121777,448.499969 
	C20.121777,509.927917 20.121777,571.355835 20.121777,632.788635 
	C246.172134,632.788635 471.608582,632.788635 697.141052,632.788635 
	C697.141052,578.622864 697.141052,524.690796 697.141052,470.207184 
	C600.202209,470.207184 503.477173,470.207184 406.669739,470.207184 
	C406.669739,403.760834 406.669739,337.866852 406.669739,271.560608 
	C503.607330,271.560608 600.216064,271.560608 696.949829,271.560608 
	C696.949829,219.962326 696.949829,168.778076 696.949829,117.667068 
	C471.142517,117.667068 245.742523,117.667068 20.121777,117.667068 
	C20.121777,227.855820 20.121777,337.677887 20.121777,448.499969 
M30.523144,86.215965 
	C263.242432,86.215965 495.961700,86.215965 729.195557,86.215965 
	C729.195557,148.317139 729.195557,209.853973 729.195557,271.256470 
	C749.755798,271.256470 769.798828,271.256470 789.644043,271.256470 
	C789.644043,188.503326 789.644043,106.134079 789.644043,23.896492 
	C533.035278,23.896492 276.808228,23.896492 20.379509,23.896492 
	C20.379509,44.700264 20.379509,65.268333 20.379509,86.215973 
	C23.594206,86.215973 26.564039,86.215973 30.523144,86.215965 
M790.037720,370.500000 
	C790.037720,348.073181 790.037720,325.646362 790.037720,303.329224 
	C672.097290,303.329224 554.724487,303.329224 437.450134,303.329224 
	C437.450134,348.416168 437.450134,393.157379 437.450134,437.799255 
	C555.133667,437.799255 672.507080,437.799255 790.037720,437.799255 
	C790.037720,415.467529 790.037720,393.483765 790.037720,370.500000 
M729.003174,487.501221 
	C729.003174,515.258850 729.003174,543.016479 729.003174,570.711426 
	C749.973450,570.711426 770.375122,570.711426 790.713013,570.711426 
	C790.713013,537.026123 790.713013,503.626953 790.713013,470.288635 
	C770.026367,470.288635 749.624756,470.288635 729.003174,470.288635 
	C729.003174,475.881500 729.003174,481.191650 729.003174,487.501221 
z"/>
<path fill="#000000" opacity="1.000000" stroke="none" 
	d="
M20.121777,447.999939 
	C20.121777,337.677887 20.121777,227.855820 20.121777,117.667068 
	C245.742523,117.667068 471.142517,117.667068 696.949829,117.667068 
	C696.949829,168.778076 696.949829,219.962326 696.949829,271.560608 
	C600.216064,271.560608 503.607330,271.560608 406.669739,271.560608 
	C406.669739,337.866852 406.669739,403.760834 406.669739,470.207184 
	C503.477173,470.207184 600.202209,470.207184 697.141052,470.207184 
	C697.141052,524.690796 697.141052,578.622864 697.141052,632.788635 
	C471.608582,632.788635 246.172134,632.788635 20.121777,632.788635 
	C20.121777,571.355835 20.121777,509.927917 20.121777,447.999939 
z"/>
<path fill="#000000" opacity="1.000000" stroke="none" 
	d="
M30.028507,86.215973 
	C26.564039,86.215973 23.594206,86.215973 20.379509,86.215973 
	C20.379509,65.268333 20.379509,44.700264 20.379509,23.896492 
	C276.808228,23.896492 533.035278,23.896492 789.644043,23.896492 
	C789.644043,106.134079 789.644043,188.503326 789.644043,271.256470 
	C769.798828,271.256470 749.755798,271.256470 729.195557,271.256470 
	C729.195557,209.853973 729.195557,148.317139 729.195557,86.215965 
	C495.961700,86.215965 263.242432,86.215965 30.028507,86.215973 
z"/>
<path fill="#010101" opacity="1.000000" stroke="none" 
	d="
M790.037720,371.000000 
	C790.037720,393.483765 790.037720,415.467529 790.037720,437.799255 
	C672.507080,437.799255 555.133667,437.799255 437.450134,437.799255 
	C437.450134,393.157379 437.450134,348.416168 437.450134,303.329224 
	C554.724487,303.329224 672.097290,303.329224 790.037720,303.329224 
	C790.037720,325.646362 790.037720,348.073181 790.037720,371.000000 
M554.054382,404.506409 
	C563.061462,391.118988 566.486145,376.603485 564.173157,360.461029 
	C559.989807,331.265381 532.266113,308.587067 502.889832,310.255035 
	C472.036743,312.006866 447.906860,337.413727 446.537384,367.607727 
	C445.063934,400.093750 471.415497,429.432220 503.915100,429.890778 
	C524.639526,430.183197 541.196228,421.621033 554.054382,404.506409 
z"/>
<path fill="#000000" opacity="1.000000" stroke="none" 
	d="
M729.003174,487.001526 
	C729.003174,481.191650 729.003174,475.881500 729.003174,470.288635 
	C749.624756,470.288635 770.026367,470.288635 790.713013,470.288635 
	C790.713013,503.626953 790.713013,537.026123 790.713013,570.711426 
	C770.375122,570.711426 749.973450,570.711426 729.003174,570.711426 
	C729.003174,543.016479 729.003174,515.258850 729.003174,487.001526 
z"/>
<path fill="#FDFDFD" opacity="1.000000" stroke="none" 
	d="
M553.870667,404.815979 
	C541.196228,421.621033 524.639526,430.183197 503.915100,429.890778 
	C471.415497,429.432220 445.063934,400.093750 446.537384,367.607727 
	C447.906860,337.413727 472.036743,312.006866 502.889832,310.255035 
	C532.266113,308.587067 559.989807,331.265381 564.173157,360.461029 
	C566.486145,376.603485 563.061462,391.118988 553.870667,404.815979 
M523.688904,347.738739 
	C516.412903,342.206635 508.397980,340.071075 499.313599,342.045197 
	C484.365936,345.293488 474.839203,360.566254 478.024353,376.417786 
	C480.966644,391.060852 495.974152,401.094879 510.547791,398.275055 
	C521.892151,396.079956 529.538147,389.451447 532.835327,378.574066 
	C536.381348,366.875885 533.212036,356.592987 523.688904,347.738739 
z"/>
<path fill="#020202" opacity="1.000000" stroke="none" 
	d="
M523.974121,347.959137 
	C533.212036,356.592987 536.381348,366.875885 532.835327,378.574066 
	C529.538147,389.451447 521.892151,396.079956 510.547791,398.275055 
	C495.974152,401.094879 480.966644,391.060852 478.024353,376.417786 
	C474.839203,360.566254 484.365936,345.293488 499.313599,342.045197 
	C508.397980,340.071075 516.412903,342.206635 523.974121,347.959137 
z"/>
</svg>