<svg version="1.1" id="Layer_1" xmlns="http://www.w3.org/2000/svg"  x="0px" y="0px"
	 width="100%" viewBox="0 0 798 723" enable-background="new 0 0 798 723" >
<path fill="#FFFFFF" opacity="1.000000" stroke="none" 
	d="
M799.000000,274.000000 
	C799.000000,424.333344 799.000000,574.166687 799.000000,724.000000 
	C533.000000,724.000000 267.000000,724.000000 1.000000,724.000000 
	C1.000000,483.000000 1.000000,242.000000 1.000000,1.000000 
	C267.000000,1.000000 533.000000,1.000000 799.000000,1.000000 
	C799.000000,91.833336 799.000000,182.666672 799.000000,274.000000 
M342.500244,106.633408 
	C233.738495,106.633408 124.976761,106.633408 16.143000,106.633408 
	C16.143000,307.526001 16.143000,507.913849 16.143000,708.713257 
	C18.400269,708.713257 20.363344,708.713196 22.326418,708.713196 
	C138.818176,708.713196 255.309937,708.713196 371.801697,708.713196 
	C507.792084,708.713196 643.782471,708.705017 779.772827,708.756775 
	C783.472839,708.758240 785.808350,708.667236 785.805176,703.671753 
	C785.680298,506.852386 785.698669,310.032990 785.698425,113.213570 
	C785.698425,111.141281 785.698486,109.068993 785.698486,106.633400 
	C637.763000,106.633400 490.631653,106.633400 342.500244,106.633408 
M402.500000,19.000000 
	C324.740723,19.000000 246.981415,19.000000 169.288437,19.000000 
	C169.288437,38.309902 169.288437,57.048450 169.288437,75.715019 
	C323.310303,75.715019 477.043579,75.715019 630.711548,75.715019 
	C630.711548,56.690117 630.711548,37.951561 630.711548,19.000000 
	C554.782227,19.000000 479.141113,19.000000 402.500000,19.000000 
z"/>
<path fill="#000000" opacity="1.000000" stroke="none" 
	d="
M343.000244,106.633408 
	C490.631653,106.633400 637.763000,106.633400 785.698486,106.633400 
	C785.698486,109.068993 785.698425,111.141281 785.698425,113.213570 
	C785.698669,310.032990 785.680298,506.852386 785.805176,703.671753 
	C785.808350,708.667236 783.472839,708.758240 779.772827,708.756775 
	C643.782471,708.705017 507.792084,708.713196 371.801697,708.713196 
	C255.309937,708.713196 138.818176,708.713196 22.326418,708.713196 
	C20.363344,708.713196 18.400269,708.713257 16.143000,708.713257 
	C16.143000,507.913849 16.143000,307.526001 16.143000,106.633408 
	C124.976761,106.633408 233.738495,106.633408 343.000244,106.633408 
z"/>
<path fill="#000000" opacity="1.000000" stroke="none" 
	d="
M403.000000,19.000000 
	C479.141113,19.000000 554.782227,19.000000 630.711548,19.000000 
	C630.711548,37.951561 630.711548,56.690117 630.711548,75.715019 
	C477.043579,75.715019 323.310303,75.715019 169.288437,75.715019 
	C169.288437,57.048450 169.288437,38.309902 169.288437,19.000000 
	C246.981415,19.000000 324.740723,19.000000 403.000000,19.000000 
z"/>
</svg>