<svg version="1.1" id="Layer_1" x="0px" y="0px"
	 width="100%" viewBox="0 0 793 777" enable-background="new 0 0 793 777" >
<path fill="#FEFEFE" opacity="1.000000" stroke="none" 
	d="
M450.000000,778.000000 
	C300.000000,778.000000 150.500000,778.000000 1.000000,778.000000 
	C1.000000,519.000000 1.000000,260.000000 1.000000,1.000000 
	C265.333344,1.000000 529.666687,1.000000 794.000000,1.000000 
	C794.000000,260.000000 794.000000,519.000000 794.000000,778.000000 
	C679.500000,778.000000 565.000000,778.000000 450.000000,778.000000 
M290.388763,679.133179 
	C312.858459,687.559143 336.011627,693.320862 360.117859,696.594543 
	C360.117859,723.174072 360.117859,749.431396 360.117859,775.814941 
	C385.917297,775.814941 411.317993,775.814941 437.023102,775.814941 
	C437.023102,749.462952 437.023102,723.348633 437.023102,696.863037 
	C492.988434,689.788757 543.256958,669.182861 588.468201,634.633850 
	C607.035950,653.201538 625.365906,671.531494 643.700439,689.866028 
	C661.505859,671.778198 679.358521,653.642517 697.590576,635.121338 
	C679.588379,617.132141 661.243225,598.800110 642.806824,580.377075 
	C676.875122,536.086365 697.546326,486.326233 705.047791,430.718964 
	C731.216431,430.718964 757.127502,430.718964 783.236694,430.718964 
	C783.236694,404.870270 783.236694,379.480103 783.236694,353.782623 
	C781.105286,353.782623 779.287537,353.782593 777.469788,353.782593 
	C755.471558,353.782593 733.473083,353.727356 711.475464,353.840027 
	C708.032837,353.857635 706.393921,353.436859 705.746216,349.265045 
	C702.654541,329.351135 697.601746,309.894897 690.350342,291.058197 
	C687.662170,284.075012 684.764832,277.172363 681.962952,270.232971 
	C681.578308,270.340698 681.193665,270.448456 680.809021,270.556183 
	C680.809021,290.955017 680.809021,311.353851 680.809021,332.079498 
	C666.637695,332.079498 652.853333,332.079498 638.880188,332.079498 
	C655.940796,409.573364 642.194763,480.526337 593.228760,542.879150 
	C544.156067,605.367859 478.570251,637.023743 399.214417,637.283264 
	C266.107269,637.718506 154.540131,530.919128 153.404648,392.984619 
	C152.830414,323.228821 177.793274,262.681244 228.361572,214.509735 
	C293.023163,152.912918 370.253052,133.310211 457.747742,151.716858 
	C457.747742,137.535324 457.747742,123.435783 457.747742,108.871964 
	C478.440399,108.871964 498.770813,108.871964 519.101196,108.871964 
	C492.797089,96.490509 465.181152,89.253983 436.136658,85.443634 
	C436.136658,58.912876 436.136658,32.691257 436.136658,6.551228 
	C410.210968,6.551228 384.837311,6.551228 359.053467,6.551228 
	C359.053467,33.215492 359.053467,59.480286 359.053467,85.788986 
	C303.773712,93.418999 254.437378,114.240196 210.228989,148.551193 
	C191.317413,129.633698 172.498093,110.808487 154.385330,92.690056 
	C136.268799,110.763618 118.261711,128.727997 99.960686,146.985596 
	C118.342194,165.348495 137.058487,184.045837 155.951599,202.919830 
	C121.592064,247.741882 100.974281,298.218628 93.908333,354.497437 
	C67.076111,354.497437 40.643501,354.497437 14.020948,354.497437 
	C14.020948,380.293060 14.020948,405.691864 14.020948,431.424042 
	C16.100021,431.424042 17.901361,431.424072 19.702700,431.424072 
	C43.200787,431.424103 66.699165,431.480652 90.196625,431.358795 
	C93.461044,431.341888 94.651169,432.106995 95.148155,435.621796 
	C100.413788,472.861053 111.920319,508.094818 130.563004,540.793030 
	C138.122131,554.051392 146.799469,566.672119 155.447021,580.340149 
	C137.252136,598.525146 118.575348,617.191833 100.659348,635.098145 
	C118.739349,653.250305 136.773514,671.356384 154.944626,689.600037 
	C173.272415,671.471680 191.977737,652.969849 210.787140,634.365112 
	C234.687286,652.982117 261.153534,667.744202 290.388763,679.133179 
M298.024170,200.491592 
	C279.052338,210.517258 261.845642,223.005600 246.740265,238.222519 
	C211.156677,274.068817 190.151718,317.108948 184.438843,367.332092 
	C179.589371,409.965027 187.072922,450.556976 206.521378,488.787842 
	C227.881607,530.776855 259.784882,562.475891 301.786102,583.687012 
	C341.683624,603.835815 384.071686,610.660278 428.315491,604.654358 
	C459.187744,600.463623 487.935669,589.914795 514.195190,573.031494 
	C552.557190,548.366943 580.636353,514.995911 598.002563,472.777039 
	C611.687622,439.507446 616.750549,404.875793 612.852173,369.132629 
	C611.495239,356.690704 608.612549,344.415161 606.467285,332.293091 
	C592.426575,332.293091 579.647949,332.293091 566.348450,332.293091 
	C566.348450,370.742493 566.348450,408.980469 566.348450,447.408508 
	C530.249512,447.408508 494.674347,447.408508 458.601379,447.408508 
	C458.601379,408.890045 458.601379,370.643005 458.601379,331.947815 
	C419.869415,331.947815 381.633087,331.947815 343.343231,331.947815 
	C343.343231,295.914703 343.343231,260.335602 343.343231,224.240463 
	C381.818237,224.240463 420.049988,224.240463 458.497345,224.240463 
	C458.497345,210.610260 458.497345,197.494736 458.497345,183.901962 
	C403.170837,168.976883 349.894409,174.168304 298.024170,200.491592 
M652.002075,293.407013 
	C652.002075,280.659271 652.002075,267.911499 652.002075,254.828217 
	C612.949219,254.828217 574.552368,254.828217 535.838806,254.828217 
	C535.838806,216.390457 535.838806,178.298340 535.838806,140.046051 
	C520.290710,140.046051 505.063782,140.046051 489.278625,140.046051 
	C489.278625,178.497849 489.278625,216.688507 489.278625,255.191574 
	C450.629181,255.191574 412.537903,255.191574 374.287476,255.191574 
	C374.287476,270.732269 374.287476,285.952637 374.287476,301.486115 
	C412.696228,301.486115 450.805389,301.486115 489.426727,301.486115 
	C489.426727,340.036316 489.426727,378.276001 489.426727,416.713226 
	C505.178864,416.713226 520.416321,416.713226 536.215332,416.713226 
	C536.215332,378.187012 536.215332,339.837006 536.215332,301.533081 
	C575.128174,301.533081 613.479858,301.533081 652.002075,301.533081 
	C652.002075,299.021515 652.002075,296.697021 652.002075,293.407013 
M653.016663,218.507690 
	C649.475464,213.356216 645.934265,208.204742 641.822937,202.223907 
	C660.316528,183.840622 678.683411,165.583221 697.171997,147.204880 
	C679.317993,128.764053 661.481018,110.340828 643.409668,91.675453 
	C624.701843,110.140991 606.133606,128.468704 587.605286,146.757065 
	C580.810303,142.257675 573.861267,137.656311 566.360596,132.689667 
	C566.360596,154.655228 567.047180,175.510422 566.084290,196.289200 
	C565.566956,207.454163 568.297180,215.824234 577.201904,222.519745 
	C579.698669,224.397079 581.743835,225.816864 585.050415,225.795319 
	C607.539917,225.648865 630.030701,225.718704 652.521118,225.718704 
	C653.919006,225.718704 655.316895,225.718689 657.560974,225.718689 
	C655.844360,222.973526 654.636108,221.041397 653.016663,218.507690 
z"/>
<path fill="#010101" opacity="1.000000" stroke="none" 
	d="
M290.014679,679.028992 
	C261.153534,667.744202 234.687286,652.982117 210.787140,634.365112 
	C191.977737,652.969849 173.272415,671.471680 154.944626,689.600037 
	C136.773514,671.356384 118.739349,653.250305 100.659348,635.098145 
	C118.575348,617.191833 137.252136,598.525146 155.447021,580.340149 
	C146.799469,566.672119 138.122131,554.051392 130.563004,540.793030 
	C111.920319,508.094818 100.413788,472.861053 95.148155,435.621796 
	C94.651169,432.106995 93.461044,431.341888 90.196625,431.358795 
	C66.699165,431.480652 43.200787,431.424103 19.702700,431.424072 
	C17.901361,431.424072 16.100021,431.424042 14.020948,431.424042 
	C14.020948,405.691864 14.020948,380.293060 14.020948,354.497437 
	C40.643501,354.497437 67.076111,354.497437 93.908333,354.497437 
	C100.974281,298.218628 121.592064,247.741882 155.951599,202.919830 
	C137.058487,184.045837 118.342194,165.348495 99.960686,146.985596 
	C118.261711,128.727997 136.268799,110.763618 154.385330,92.690056 
	C172.498093,110.808487 191.317413,129.633698 210.228989,148.551193 
	C254.437378,114.240196 303.773712,93.418999 359.053467,85.788986 
	C359.053467,59.480286 359.053467,33.215492 359.053467,6.551228 
	C384.837311,6.551228 410.210968,6.551228 436.136658,6.551228 
	C436.136658,32.691257 436.136658,58.912876 436.136658,85.443634 
	C465.181152,89.253983 492.797089,96.490509 519.101196,108.871964 
	C498.770813,108.871964 478.440399,108.871964 457.747742,108.871964 
	C457.747742,123.435783 457.747742,137.535324 457.747742,151.716858 
	C370.253052,133.310211 293.023163,152.912918 228.361572,214.509735 
	C177.793274,262.681244 152.830414,323.228821 153.404648,392.984619 
	C154.540131,530.919128 266.107269,637.718506 399.214417,637.283264 
	C478.570251,637.023743 544.156067,605.367859 593.228760,542.879150 
	C642.194763,480.526337 655.940796,409.573364 638.880188,332.079498 
	C652.853333,332.079498 666.637695,332.079498 680.809021,332.079498 
	C680.809021,311.353851 680.809021,290.955017 680.809021,270.556183 
	C681.193665,270.448456 681.578308,270.340698 681.962952,270.232971 
	C684.764832,277.172363 687.662170,284.075012 690.350342,291.058197 
	C697.601746,309.894897 702.654541,329.351135 705.746216,349.265045 
	C706.393921,353.436859 708.032837,353.857635 711.475464,353.840027 
	C733.473083,353.727356 755.471558,353.782593 777.469788,353.782593 
	C779.287537,353.782593 781.105286,353.782623 783.236694,353.782623 
	C783.236694,379.480103 783.236694,404.870270 783.236694,430.718964 
	C757.127502,430.718964 731.216431,430.718964 705.047791,430.718964 
	C697.546326,486.326233 676.875122,536.086365 642.806824,580.377075 
	C661.243225,598.800110 679.588379,617.132141 697.590576,635.121338 
	C679.358521,653.642517 661.505859,671.778198 643.700439,689.866028 
	C625.365906,671.531494 607.035950,653.201538 588.468201,634.633850 
	C543.256958,669.182861 492.988434,689.788757 437.023102,696.863037 
	C437.023102,723.348633 437.023102,749.462952 437.023102,775.814941 
	C411.317993,775.814941 385.917297,775.814941 360.117859,775.814941 
	C360.117859,749.431396 360.117859,723.174072 360.117859,696.594543 
	C336.011627,693.320862 312.858459,687.559143 290.014679,679.028992 
z"/>
<path fill="#010101" opacity="1.000000" stroke="none" 
	d="
M298.341766,200.298004 
	C349.894409,174.168304 403.170837,168.976883 458.497345,183.901962 
	C458.497345,197.494736 458.497345,210.610260 458.497345,224.240463 
	C420.049988,224.240463 381.818237,224.240463 343.343231,224.240463 
	C343.343231,260.335602 343.343231,295.914703 343.343231,331.947815 
	C381.633087,331.947815 419.869415,331.947815 458.601379,331.947815 
	C458.601379,370.643005 458.601379,408.890045 458.601379,447.408508 
	C494.674347,447.408508 530.249512,447.408508 566.348450,447.408508 
	C566.348450,408.980469 566.348450,370.742493 566.348450,332.293091 
	C579.647949,332.293091 592.426575,332.293091 606.467285,332.293091 
	C608.612549,344.415161 611.495239,356.690704 612.852173,369.132629 
	C616.750549,404.875793 611.687622,439.507446 598.002563,472.777039 
	C580.636353,514.995911 552.557190,548.366943 514.195190,573.031494 
	C487.935669,589.914795 459.187744,600.463623 428.315491,604.654358 
	C384.071686,610.660278 341.683624,603.835815 301.786102,583.687012 
	C259.784882,562.475891 227.881607,530.776855 206.521378,488.787842 
	C187.072922,450.556976 179.589371,409.965027 184.438843,367.332092 
	C190.151718,317.108948 211.156677,274.068817 246.740265,238.222519 
	C261.845642,223.005600 279.052338,210.517258 298.341766,200.298004 
z"/>
<path fill="#020202" opacity="1.000000" stroke="none" 
	d="
M652.002075,293.889771 
	C652.002075,296.697021 652.002075,299.021515 652.002075,301.533081 
	C613.479858,301.533081 575.128174,301.533081 536.215332,301.533081 
	C536.215332,339.837006 536.215332,378.187012 536.215332,416.713226 
	C520.416321,416.713226 505.178864,416.713226 489.426727,416.713226 
	C489.426727,378.276001 489.426727,340.036316 489.426727,301.486115 
	C450.805389,301.486115 412.696228,301.486115 374.287476,301.486115 
	C374.287476,285.952637 374.287476,270.732269 374.287476,255.191574 
	C412.537903,255.191574 450.629181,255.191574 489.278625,255.191574 
	C489.278625,216.688507 489.278625,178.497849 489.278625,140.046051 
	C505.063782,140.046051 520.290710,140.046051 535.838806,140.046051 
	C535.838806,178.298340 535.838806,216.390457 535.838806,254.828217 
	C574.552368,254.828217 612.949219,254.828217 652.002075,254.828217 
	C652.002075,267.911499 652.002075,280.659271 652.002075,293.889771 
z"/>
<path fill="#020202" opacity="1.000000" stroke="none" 
	d="
M653.222290,218.808472 
	C654.636108,221.041397 655.844360,222.973526 657.560974,225.718689 
	C655.316895,225.718689 653.919006,225.718704 652.521118,225.718704 
	C630.030701,225.718704 607.539917,225.648865 585.050415,225.795319 
	C581.743835,225.816864 579.698669,224.397079 577.201904,222.519745 
	C568.297180,215.824234 565.566956,207.454163 566.084290,196.289200 
	C567.047180,175.510422 566.360596,154.655228 566.360596,132.689667 
	C573.861267,137.656311 580.810303,142.257675 587.605286,146.757065 
	C606.133606,128.468704 624.701843,110.140991 643.409668,91.675453 
	C661.481018,110.340828 679.317993,128.764053 697.171997,147.204880 
	C678.683411,165.583221 660.316528,183.840622 641.822937,202.223907 
	C645.934265,208.204742 649.475464,213.356216 653.222290,218.808472 
z"/>
</svg>