<?xml version="1.0" standalone="no"?>
<!DOCTYPE svg PUBLIC "-//W3C//DTD SVG 20010904//EN"
 "http://www.w3.org/TR/2001/REC-SVG-20010904/DTD/svg10.dtd">
<svg version="1.0" xmlns="http://www.w3.org/2000/svg"
 width="677.000000pt" height="668.000000pt" viewBox="0 0 677.000000 668.000000"
 preserveAspectRatio="xMidYMid meet">

<g transform="translate(0.000000,668.000000) scale(0.100000,-0.100000)"
fill="#000000" stroke="none">
<path d="M3120 6091 l0 -539 -82 -12 c-119 -17 -329 -72 -439 -115 -140 -56
-316 -148 -441 -232 l-111 -74 -387 385 c-212 212 -391 386 -396 386 -5 0 -93
-84 -196 -187 l-188 -188 391 -391 390 -390 -77 -115 c-178 -266 -306 -596
-346 -890 l-12 -89 -558 0 -558 0 0 -275 0 -275 563 0 564 0 22 -112 c54 -279
192 -593 360 -823 l51 -70 -397 -397 -398 -398 190 -190 190 -190 395 395
c217 217 398 395 401 395 4 0 58 -34 120 -76 249 -167 538 -282 837 -333 l107
-18 3 -596 2 -597 275 0 275 0 0 600 c0 330 3 600 6 600 4 0 61 11 128 25 285
58 578 184 802 346 45 32 86 59 91 59 4 0 186 -178 403 -395 l395 -395 193
193 192 192 -399 399 -398 398 75 112 c148 220 271 516 323 774 l22 112 584 0
583 0 0 275 0 275 -579 0 -578 0 -12 78 c-49 316 -165 615 -340 878 l-79 119
389 390 389 390 -190 190 -190 190 -388 -388 -389 -389 -110 76 c-179 123
-390 226 -592 288 -87 27 -270 68 -303 68 l-28 0 0 545 0 545 -275 0 -275 0 0
-539z m565 -1101 c223 -47 438 -140 620 -270 204 -144 410 -391 519 -620 374
-790 45 -1735 -740 -2128 -298 -149 -680 -203 -1004 -142 -650 123 -1154 617
-1290 1265 -27 131 -37 368 -21 501 47 377 196 680 465 949 273 272 550 407
961 469 17 2 111 3 210 1 134 -3 206 -9 280 -25z"/>
</g>
</svg>
