<svg version="1.1" id="Layer_1"   x="0px" y="0px"
	 width="100%" viewBox="0 0 1040 808" enable-background="new 0 0 1040 808" >
<path fill="#FFFFFF" opacity="1.000000" stroke="none" 
	d="
M663.000000,809.000000 
	C442.000000,809.000000 221.500031,809.000000 1.000030,809.000000 
	C1.000020,539.666687 1.000020,270.333405 1.000010,1.000044 
	C174.333298,1.000000 347.666595,1.000000 520.999878,1.000000 
	C694.333191,1.000000 867.666565,1.000000 1041.000000,1.000000 
	C1041.000000,270.333282 1041.000000,539.666565 1041.000000,808.999878 
	C915.166687,809.000000 789.333313,809.000000 663.000000,809.000000 
M840.752502,465.228363 
	C844.276917,449.847107 848.464539,434.582642 851.197815,419.062073 
	C858.532837,377.410156 857.304565,335.744537 848.617798,294.443146 
	C835.379028,231.499023 807.110229,176.068237 762.988281,129.140625 
	C704.107300,66.515549 631.600037,30.585119 546.240051,21.190214 
	C490.122162,15.013756 435.821777,23.260118 383.164001,43.658165 
	C263.142700,90.150818 176.552963,207.001999 166.749588,335.588501 
	C162.482346,391.560120 170.416351,445.506378 192.162598,497.213776 
	C221.979843,568.112122 270.062500,623.460083 336.482941,662.233154 
	C405.557343,702.555481 480.099274,716.913147 559.363770,706.006958 
	C602.835999,700.025574 643.730530,686.119751 681.632568,664.003418 
	C696.813416,655.145203 711.237549,644.990173 726.524353,635.089783 
	C777.142456,685.709961 828.346069,736.915588 879.800354,788.371948 
	C897.896423,769.816162 915.755249,751.503540 934.698853,732.078674 
	C883.600403,681.570312 832.081421,630.646362 780.501038,579.661621 
	C807.691650,545.076355 827.759521,507.458710 840.752502,465.228363 
z"/>
<path fill="#010101" opacity="1.000000" stroke="none" 
	d="
M840.593994,465.596924 
	C827.759521,507.458710 807.691650,545.076355 780.501038,579.661621 
	C832.081421,630.646362 883.600403,681.570312 934.698853,732.078674 
	C915.755249,751.503540 897.896423,769.816162 879.800354,788.371948 
	C828.346069,736.915588 777.142456,685.709961 726.524353,635.089783 
	C711.237549,644.990173 696.813416,655.145203 681.632568,664.003418 
	C643.730530,686.119751 602.835999,700.025574 559.363770,706.006958 
	C480.099274,716.913147 405.557343,702.555481 336.482941,662.233154 
	C270.062500,623.460083 221.979843,568.112122 192.162598,497.213776 
	C170.416351,445.506378 162.482346,391.560120 166.749588,335.588501 
	C176.552963,207.001999 263.142700,90.150818 383.164001,43.658165 
	C435.821777,23.260118 490.122162,15.013756 546.240051,21.190214 
	C631.600037,30.585119 704.107300,66.515549 762.988281,129.140625 
	C807.110229,176.068237 835.379028,231.499023 848.617798,294.443146 
	C857.304565,335.744537 858.532837,377.410156 851.197815,419.062073 
	C848.464539,434.582642 844.276917,449.847107 840.593994,465.596924 
M788.252380,297.225403 
	C787.804016,295.283447 787.401489,293.329559 786.900818,291.401184 
	C747.021790,137.811798 589.219788,46.201885 436.180878,88.125931 
	C292.432922,127.504776 203.559906,269.651276 231.414352,416.143402 
	C244.776596,486.418152 280.032928,544.253540 336.812103,587.885742 
	C402.622711,638.458191 477.252167,656.849854 559.139221,643.527954 
	C609.769470,635.291138 654.977051,614.156860 694.131226,580.925171 
	C750.870789,532.768066 783.942139,471.420197 793.824890,397.743286 
	C798.317261,364.252563 796.228088,330.942657 788.252380,297.225403 
z"/>
<path fill="#FDFDFD" opacity="1.000000" stroke="none" 
	d="
M788.379395,297.621582 
	C796.228088,330.942657 798.317261,364.252563 793.824890,397.743286 
	C783.942139,471.420197 750.870789,532.768066 694.131226,580.925171 
	C654.977051,614.156860 609.769470,635.291138 559.139221,643.527954 
	C477.252167,656.849854 402.622711,638.458191 336.812103,587.885742 
	C280.032928,544.253540 244.776596,486.418152 231.414352,416.143402 
	C203.559906,269.651276 292.432922,127.504776 436.180878,88.125931 
	C589.219788,46.201885 747.021790,137.811798 786.900818,291.401184 
	C787.401489,293.329559 787.804016,295.283447 788.379395,297.621582 
M549.615173,389.817047 
	C549.615173,399.446686 549.615173,409.076294 549.615173,419.299194 
	C454.238373,419.299194 359.225586,419.299194 262.848145,419.299194 
	C267.587952,433.250732 272.071594,446.236023 276.382294,459.278473 
	C277.532928,462.759796 279.339294,463.944824 283.182678,463.935303 
	C344.345703,463.783600 405.509247,463.828491 466.672668,463.828491 
	C468.588470,463.828491 470.504272,463.828491 472.330261,463.828491 
	C472.330261,474.449524 472.330261,484.338531 472.330261,494.804626 
	C412.633606,494.804626 353.303436,494.804626 292.472137,494.804626 
	C345.822815,575.390198 418.985809,618.788879 514.708801,617.310669 
	C606.881653,615.887268 677.156006,572.492004 728.234802,494.633240 
	C667.892456,494.633240 609.019287,494.633240 549.915771,494.633240 
	C549.915771,484.173553 549.915771,474.250397 549.915771,463.828491 
	C551.815796,463.828491 553.599304,463.828491 555.382812,463.828491 
	C614.213013,463.828491 673.043213,463.828491 731.873413,463.828491 
	C744.435608,463.828491 744.703796,463.921753 748.781006,452.196960 
	C752.670166,441.013000 755.919556,429.606567 759.691528,417.524750 
	C740.263428,417.524750 722.161804,417.524750 703.879944,417.524750 
	C703.879944,406.835754 703.879944,396.593994 703.879944,385.904846 
	C724.020813,385.904846 743.930969,385.904846 763.852539,385.904846 
	C763.852539,370.528931 763.852539,355.602203 763.852539,340.157867 
	C692.401978,340.157867 621.181030,340.157867 549.972351,340.157867 
	C549.972351,329.721680 549.972351,319.807922 549.972351,309.359863 
	C619.782898,309.359863 689.305481,309.359863 760.065613,309.359863 
	C755.609253,295.600372 751.292908,282.728760 747.319153,269.752258 
	C745.959534,265.312683 743.865784,263.764526 738.974304,263.769867 
	C590.482361,263.931915 441.990234,263.897888 293.498138,263.918457 
	C288.187805,263.919189 281.457458,262.236786 277.954681,264.819153 
	C274.229370,267.565552 273.270325,274.367279 271.622345,279.562897 
	C268.541901,289.274750 265.836487,299.105560 262.748291,309.661804 
	C307.776825,309.661804 351.526764,309.661804 395.426636,309.661804 
	C395.426636,320.061768 395.426636,329.973267 395.426636,340.358948 
	C349.733368,340.358948 304.324982,340.358948 258.570343,340.358948 
	C257.017334,356.679474 256.546051,372.513702 258.732483,388.602570 
	C261.226227,388.602570 263.212952,388.602600 265.199677,388.602600 
	C357.861420,388.602600 450.523132,388.600098 543.184875,388.619293 
	C545.161743,388.619720 547.138550,388.869843 549.615173,389.817047 
M728.286987,231.498871 
	C720.596924,220.648697 713.832764,208.978912 705.068909,199.079300 
	C640.707214,126.376106 560.280518,96.683022 464.441559,113.232628 
	C398.742706,124.577591 346.475830,159.195786 306.580811,212.482605 
	C301.855591,218.793976 297.750397,225.569580 292.768066,233.010742 
	C295.412811,233.010742 296.842896,233.010773 298.272949,233.010773 
	C440.254700,233.010773 582.236450,233.013351 724.218201,232.975708 
	C725.717773,232.975311 727.217224,232.447052 728.286987,231.498871 
z"/>
<path fill="#020202" opacity="1.000000" stroke="none" 
	d="
M549.365295,389.410278 
	C547.138550,388.869843 545.161743,388.619720 543.184875,388.619293 
	C450.523132,388.600098 357.861420,388.602600 265.199677,388.602600 
	C263.212952,388.602600 261.226227,388.602570 258.732483,388.602570 
	C256.546051,372.513702 257.017334,356.679474 258.570343,340.358948 
	C304.324982,340.358948 349.733368,340.358948 395.426636,340.358948 
	C395.426636,329.973267 395.426636,320.061768 395.426636,309.661804 
	C351.526764,309.661804 307.776825,309.661804 262.748291,309.661804 
	C265.836487,299.105560 268.541901,289.274750 271.622345,279.562897 
	C273.270325,274.367279 274.229370,267.565552 277.954681,264.819153 
	C281.457458,262.236786 288.187805,263.919189 293.498138,263.918457 
	C441.990234,263.897888 590.482361,263.931915 738.974304,263.769867 
	C743.865784,263.764526 745.959534,265.312683 747.319153,269.752258 
	C751.292908,282.728760 755.609253,295.600372 760.065613,309.359863 
	C689.305481,309.359863 619.782898,309.359863 549.972351,309.359863 
	C549.972351,319.807922 549.972351,329.721680 549.972351,340.157867 
	C621.181030,340.157867 692.401978,340.157867 763.852539,340.157867 
	C763.852539,355.602203 763.852539,370.528931 763.852539,385.904846 
	C743.930969,385.904846 724.020813,385.904846 703.879944,385.904846 
	C703.879944,396.593994 703.879944,406.835754 703.879944,417.524750 
	C722.161804,417.524750 740.263428,417.524750 759.691528,417.524750 
	C755.919556,429.606567 752.670166,441.013000 748.781006,452.196960 
	C744.703796,463.921753 744.435608,463.828491 731.873413,463.828491 
	C673.043213,463.828491 614.213013,463.828491 555.382812,463.828491 
	C553.599304,463.828491 551.815796,463.828491 549.915771,463.828491 
	C549.915771,474.250397 549.915771,484.173553 549.915771,494.633240 
	C609.019287,494.633240 667.892456,494.633240 728.234802,494.633240 
	C677.156006,572.492004 606.881653,615.887268 514.708801,617.310669 
	C418.985809,618.788879 345.822815,575.390198 292.472137,494.804626 
	C353.303436,494.804626 412.633606,494.804626 472.330261,494.804626 
	C472.330261,484.338531 472.330261,474.449524 472.330261,463.828491 
	C470.504272,463.828491 468.588470,463.828491 466.672668,463.828491 
	C405.509247,463.828491 344.345703,463.783600 283.182678,463.935303 
	C279.339294,463.944824 277.532928,462.759796 276.382294,459.278473 
	C272.071594,446.236023 267.587952,433.250732 262.848145,419.299194 
	C359.225586,419.299194 454.238373,419.299194 549.615173,419.299194 
	C549.615173,409.076294 549.615173,399.446686 549.365295,389.410278 
z"/>
<path fill="#000000" opacity="1.000000" stroke="none" 
	d="
M728.501831,231.832047 
	C727.217224,232.447052 725.717773,232.975311 724.218201,232.975708 
	C582.236450,233.013351 440.254700,233.010773 298.272949,233.010773 
	C296.842896,233.010773 295.412811,233.010742 292.768066,233.010742 
	C297.750397,225.569580 301.855591,218.793976 306.580811,212.482605 
	C346.475830,159.195786 398.742706,124.577591 464.441559,113.232628 
	C560.280518,96.683022 640.707214,126.376106 705.068909,199.079300 
	C713.832764,208.978912 720.596924,220.648697 728.501831,231.832047 
z"/>
</svg>