<?xml version="1.0" standalone="no"?>
<!DOCTYPE svg PUBLIC "-//W3C//DTD SVG 20010904//EN"
 "http://www.w3.org/TR/2001/REC-SVG-20010904/DTD/svg10.dtd">
<svg version="1.0" xmlns="http://www.w3.org/2000/svg"
 width="681.000000pt" height="690.000000pt" viewBox="0 0 681.000000 690.000000"
 preserveAspectRatio="xMidYMid meet">

<g transform="translate(0.000000,690.000000) scale(0.100000,-0.100000)"
fill="#000000" stroke="none">
<path d="M3160 6130 l0 -670 280 0 280 0 0 670 0 670 -280 0 -280 0 0 -670z"/>
<path d="M1082 5867 l-192 -192 500 -500 500 -500 198 198 197 199 -500 494
c-275 271 -502 494 -505 494 -3 0 -92 -87 -198 -193z"/>
<path d="M3790 5148 l0 -284 73 -23 c313 -99 591 -324 768 -621 57 -97 117
-249 147 -375 23 -97 26 -131 27 -295 0 -158 -3 -200 -23 -288 -60 -269 -186
-495 -384 -689 -149 -146 -330 -257 -524 -320 l-84 -27 0 -283 c0 -159 4 -283
9 -283 5 0 60 13 123 30 494 128 918 445 1175 878 385 647 353 1462 -82 2078
-214 304 -523 547 -865 679 -104 40 -241 82 -327 100 l-33 7 0 -284z"/>
<path d="M100 3470 l0 -280 710 0 710 0 0 280 0 280 -710 0 -710 0 0 -280z"/>
<path d="M1367 1872 l-497 -497 195 -195 194 -194 398 394 c219 216 445 440
503 497 l105 103 -195 195 c-107 107 -197 195 -200 195 -3 0 -229 -224 -503
-498z"/>
<path d="M3160 895 l0 -755 280 0 280 0 0 755 0 755 -280 0 -280 0 0 -755z"/>
</g>
</svg>
