<svg version="1.1" id="Layer_1" x="0px" y="0px"
	 width="100%" viewBox="0 0 818 794" enable-background="new 0 0 818 794" >
<path fill="#FEFEFE" opacity="1.000000" stroke="none" 
	d="
M1.000000,312.000000 
	C1.000000,208.016022 1.000000,104.532043 1.000000,1.024032 
	C273.608429,1.024032 546.216858,1.024032 818.912659,1.024032 
	C818.912659,265.567444 818.912659,530.134888 818.912659,794.851196 
	C546.333374,794.851196 273.666718,794.851196 1.000000,794.851196 
	C1.000000,634.116211 1.000000,473.308105 1.000000,312.000000 
M794.828064,446.500061 
	C794.828064,365.736206 794.828064,284.972351 794.828064,204.274963 
	C538.486145,204.274963 282.755402,204.274963 27.263290,204.274963 
	C27.263290,335.322021 27.263290,466.042786 27.263290,596.646362 
	C283.235596,596.646362 538.823547,596.646362 794.828064,596.646362 
	C794.828064,546.751282 794.828064,497.125702 794.828064,446.500061 
M673.017456,21.468367 
	C670.189087,16.128801 665.764160,15.004842 659.876160,15.045143 
	C620.549500,15.314322 581.219971,15.184904 541.891418,15.184904 
	C540.178650,15.184904 538.465881,15.184903 535.820312,15.184903 
	C556.823914,41.949020 577.105957,67.793671 598.035889,94.463898 
	C407.046051,94.463898 217.178955,94.463898 27.201912,94.463898 
	C27.201912,120.806641 27.201912,146.689148 27.201912,172.436096 
	C282.961609,172.436096 538.396790,172.436096 794.467224,172.436096 
	C753.830750,121.918823 713.650879,71.969162 673.017456,21.468367 
M128.306351,754.189331 
	C135.603851,763.280518 142.976059,772.313293 150.150818,781.500305 
	C152.157745,784.070068 154.247284,785.161865 157.625137,785.151001 
	C198.452713,785.019714 239.280853,785.065979 280.108856,785.065979 
	C281.542145,785.065979 282.975433,785.065979 285.292206,785.065979 
	C264.413147,758.462097 244.080017,732.553894 223.101059,705.822754 
	C414.325867,705.822754 604.370728,705.822754 794.530396,705.822754 
	C794.530396,679.685669 794.530396,653.962036 794.530396,628.263428 
	C538.722961,628.263428 283.213623,628.263428 27.051517,628.263428 
	C60.929577,670.380371 94.406830,711.998962 128.306351,754.189331 
z"/>
<path fill="#000000" opacity="1.000000" stroke="none" 
	d="
M794.828064,447.000092 
	C794.828064,497.125702 794.828064,546.751282 794.828064,596.646362 
	C538.823547,596.646362 283.235596,596.646362 27.263290,596.646362 
	C27.263290,466.042786 27.263290,335.322021 27.263290,204.274963 
	C282.755402,204.274963 538.486145,204.274963 794.828064,204.274963 
	C794.828064,284.972351 794.828064,365.736206 794.828064,447.000092 
M405.630676,310.858124 
	C409.128326,310.905792 412.659851,310.656433 416.118011,311.050598 
	C434.807953,313.180847 450.380646,320.490845 459.225708,338.189728 
	C461.052399,341.844940 461.982391,345.948273 463.416046,350.107239 
	C472.391235,350.107239 481.546265,350.112946 490.701263,350.095001 
	C491.342346,350.093750 491.983093,349.917542 492.608765,349.824982 
	C491.884277,335.580231 485.644012,319.944366 474.644409,307.937103 
	C461.687744,293.793427 444.698914,287.586212 425.529358,285.528168 
	C425.529358,275.426636 425.529358,265.501526 425.529358,255.422638 
	C414.635773,255.422638 404.249878,255.422638 393.388214,255.422638 
	C393.388214,266.121246 393.388214,276.552246 393.388214,285.938812 
	C383.358185,289.105927 373.587006,291.035126 364.870819,295.181946 
	C346.172577,304.077667 334.023346,318.436554 331.950714,339.966125 
	C329.673401,363.621399 340.650879,379.828888 360.444000,391.052185 
	C374.044067,398.763855 389.143921,402.203796 404.115692,406.066559 
	C419.856171,410.127655 435.465088,414.292267 449.561218,423.233673 
	C468.489441,435.240112 466.999878,463.440552 450.888885,475.420166 
	C430.069336,490.900848 390.534943,491.351044 371.517578,468.366608 
	C366.307739,462.070068 362.427521,454.673340 357.645844,447.334381 
	C349.033142,447.334381 339.316284,447.334381 329.165680,447.334381 
	C337.246460,483.259491 359.645996,503.755768 395.174927,511.287170 
	C395.174927,518.832397 395.174927,526.432373 395.174927,533.925293 
	C406.008972,533.925293 416.413757,533.925293 427.105804,533.925293 
	C427.105804,526.177673 427.105804,518.721313 427.105804,511.147156 
	C431.441315,510.388428 435.528442,509.748444 439.584595,508.951050 
	C464.306152,504.091217 490.302673,486.896271 493.599701,456.391998 
	C495.532867,438.506317 492.303192,421.817902 479.662476,408.152618 
	C466.049194,393.435883 447.933136,387.525665 429.129791,382.979767 
	C410.134705,378.387573 390.669434,375.391937 373.370117,365.172607 
	C365.893280,360.755798 362.440826,354.524261 362.302917,346.466248 
	C362.138611,336.862976 365.789795,328.783447 373.482025,322.505890 
	C382.630005,315.040375 393.038239,311.429321 405.630676,310.858124 
z"/>
<path fill="#010101" opacity="1.000000" stroke="none" 
	d="
M673.244263,21.743933 
	C713.650879,71.969162 753.830750,121.918823 794.467224,172.436096 
	C538.396790,172.436096 282.961609,172.436096 27.201912,172.436096 
	C27.201912,146.689148 27.201912,120.806641 27.201912,94.463898 
	C217.178955,94.463898 407.046051,94.463898 598.035889,94.463898 
	C577.105957,67.793671 556.823914,41.949020 535.820312,15.184903 
	C538.465881,15.184903 540.178650,15.184904 541.891418,15.184904 
	C581.219971,15.184904 620.549500,15.314322 659.876160,15.045143 
	C665.764160,15.004842 670.189087,16.128801 673.244263,21.743933 
z"/>
<path fill="#000000" opacity="1.000000" stroke="none" 
	d="
M128.095215,753.903442 
	C94.406830,711.998962 60.929577,670.380371 27.051517,628.263428 
	C283.213623,628.263428 538.722961,628.263428 794.530396,628.263428 
	C794.530396,653.962036 794.530396,679.685669 794.530396,705.822754 
	C604.370728,705.822754 414.325867,705.822754 223.101059,705.822754 
	C244.080017,732.553894 264.413147,758.462097 285.292206,785.065979 
	C282.975433,785.065979 281.542145,785.065979 280.108856,785.065979 
	C239.280853,785.065979 198.452713,785.019714 157.625137,785.151001 
	C154.247284,785.161865 152.157745,784.070068 150.150818,781.500305 
	C142.976059,772.313293 135.603851,763.280518 128.095215,753.903442 
z"/>
<path fill="#FDFDFD" opacity="1.000000" stroke="none" 
	d="
M405.155029,310.879700 
	C393.038239,311.429321 382.630005,315.040375 373.482025,322.505890 
	C365.789795,328.783447 362.138611,336.862976 362.302917,346.466248 
	C362.440826,354.524261 365.893280,360.755798 373.370117,365.172607 
	C390.669434,375.391937 410.134705,378.387573 429.129791,382.979767 
	C447.933136,387.525665 466.049194,393.435883 479.662476,408.152618 
	C492.303192,421.817902 495.532867,438.506317 493.599701,456.391998 
	C490.302673,486.896271 464.306152,504.091217 439.584595,508.951050 
	C435.528442,509.748444 431.441315,510.388428 427.105804,511.147156 
	C427.105804,518.721313 427.105804,526.177673 427.105804,533.925293 
	C416.413757,533.925293 406.008972,533.925293 395.174927,533.925293 
	C395.174927,526.432373 395.174927,518.832397 395.174927,511.287170 
	C359.645996,503.755768 337.246460,483.259491 329.165680,447.334381 
	C339.316284,447.334381 349.033142,447.334381 357.645844,447.334381 
	C362.427521,454.673340 366.307739,462.070068 371.517578,468.366608 
	C390.534943,491.351044 430.069336,490.900848 450.888885,475.420166 
	C466.999878,463.440552 468.489441,435.240112 449.561218,423.233673 
	C435.465088,414.292267 419.856171,410.127655 404.115692,406.066559 
	C389.143921,402.203796 374.044067,398.763855 360.444000,391.052185 
	C340.650879,379.828888 329.673401,363.621399 331.950714,339.966125 
	C334.023346,318.436554 346.172577,304.077667 364.870819,295.181946 
	C373.587006,291.035126 383.358185,289.105927 393.388214,285.938812 
	C393.388214,276.552246 393.388214,266.121246 393.388214,255.422638 
	C404.249878,255.422638 414.635773,255.422638 425.529358,255.422638 
	C425.529358,265.501526 425.529358,275.426636 425.529358,285.528168 
	C444.698914,287.586212 461.687744,293.793427 474.644409,307.937103 
	C485.644012,319.944366 491.884277,335.580231 492.608765,349.824982 
	C491.983093,349.917542 491.342346,350.093750 490.701263,350.095001 
	C481.546265,350.112946 472.391235,350.107239 463.416046,350.107239 
	C461.982391,345.948273 461.052399,341.844940 459.225708,338.189728 
	C450.380646,320.490845 434.807953,313.180847 416.118011,311.050598 
	C412.659851,310.656433 409.128326,310.905792 405.155029,310.879700 
z"/>
</svg>